inDegrees=no
num_controls=7
num_derivatives=13
num_iterations=106
num_multipliers=7
num_parameters=0
num_slacks=7
num_states=26
objective=4.702118
objective_accelerations=0.605682
objective_balance=0.118921
objective_effort=0.470403
objective_height=3.465180
objective_ligament=0.041932
solver_duration=1950.093473
status=Solve_Succeeded
success=true
DataType=double
version=3
OpenSimVersion=4.4-2022-07-23-0e9fedc
endheader
time	/jointset/ground_pelvis/pelvis_tilt/value	/jointset/ground_pelvis/pelvis_tx/value	/jointset/ground_pelvis/pelvis_ty/value	/jointset/hip_l/hip_flexion_l/value	/jointset/hip_l/hip_adduction_l/value	/jointset/hip_l/hip_rotation_l/value	/jointset/back/lumbar_extension/value	/jointset/patellofemoral_l/patellar_flexion_l/value	/jointset/knee_l/knee_flexion_l/value	/jointset/knee_l/knee_adduction_l/value	/jointset/knee_l/knee_rotation_l/value	/jointset/ankle_l/ankle_angle_l/value	/jointset/subtalar_l/subtalar_angle_l/value	/jointset/ground_pelvis/pelvis_tilt/speed	/jointset/ground_pelvis/pelvis_tx/speed	/jointset/ground_pelvis/pelvis_ty/speed	/jointset/hip_l/hip_flexion_l/speed	/jointset/hip_l/hip_adduction_l/speed	/jointset/hip_l/hip_rotation_l/speed	/jointset/back/lumbar_extension/speed	/jointset/patellofemoral_l/patellar_flexion_l/speed	/jointset/knee_l/knee_flexion_l/speed	/jointset/knee_l/knee_adduction_l/speed	/jointset/knee_l/knee_rotation_l/speed	/jointset/ankle_l/ankle_angle_l/speed	/jointset/subtalar_l/subtalar_angle_l/speed	/forceset/tau_hip_flexion_l	/forceset/tau_hip_adduction_l	/forceset/tau_hip_rotation_l	/forceset/tau_knee_flexion_l	/forceset/tau_ankle_angle_l	/forceset/tau_subtalar_angle_l	/forceset/tau_lumbar_extension	lambda_cid13_p0	lambda_cid13_p1	lambda_cid13_p2	lambda_cid13_p3	lambda_cid13_p4	lambda_cid13_p5	lambda_cid14_p0	/jointset/ground_pelvis/pelvis_tilt/accel	/jointset/ground_pelvis/pelvis_tx/accel	/jointset/ground_pelvis/pelvis_ty/accel	/jointset/hip_l/hip_flexion_l/accel	/jointset/hip_l/hip_adduction_l/accel	/jointset/hip_l/hip_rotation_l/accel	/jointset/back/lumbar_extension/accel	/jointset/patellofemoral_l/patellar_flexion_l/accel	/jointset/knee_l/knee_flexion_l/accel	/jointset/knee_l/knee_adduction_l/accel	/jointset/knee_l/knee_rotation_l/accel	/jointset/ankle_l/ankle_angle_l/accel	/jointset/subtalar_l/subtalar_angle_l/accel	gamma_cid13_p0	gamma_cid13_p1	gamma_cid13_p2	gamma_cid13_p3	gamma_cid13_p4	gamma_cid13_p5	gamma_cid14_p0
1.5	-0.3417993019627159	-0.03002267707586779	0.6991178516557954	1.386482270031429	-0.2493543134983287	-0.02581868768569623	-0.3721750272364047	1.123244210935428	1.123244210935457	0.02132218210103123	0.1745285830986635	0.2909929402290337	0.07960537547573421	0.3435706019208678	0.09470588443960237	0.7820862428087328	-2.544847016331445	-0.05765753204598967	-0.3886599830447711	0.5202622553007763	-2.810692274154161	-2.810692274154185	-0.4771469165946514	2.914912292784941e-06	-0.7574422200385135	-0.2897608204307728	-0.2218873797485673	0.01181646105970725	-0.01066662848352445	-0.2984395946089069	0.06224223573439767	0.02683206979667892	0.2184624372124443	-17.64712253965984	-7.169212138565801	-0.8518165653307082	-1.546514335503027	-610.9376455102022	-58.1059471883755	-2.829631761862914	1.243202849835315	0.8603748034286353	-0.4934210750423036	-2.248204223944855	-0.1983310675131032	-1.08578126664132	2.325717631678869	-2.466800079837573	-2.466800079837562	-0.3819690058853838	-0.09459579517934516	-1.711296330873529	-0.3500147439190578	-1.708727315642281e-07	5.439912874286202e-06	3.387051309337082e-06	8.677193625255899e-07	2.773662236385557e-07	4.253299143534487e-06	7.801551787887438e-08
1.51	-0.3383019731621738	-0.02903264165268599	0.7069121503674737	1.360924273961267	-0.2499416754636267	-0.02976580620623133	-0.3668569330222189	1.095017196397124	1.095017196397061	0.01653504605032878	0.1745287869902284	0.2833338154245081	0.07668960365468115	0.3558191440850166	0.103295128428068	0.7765764171652711	-2.566408975583784	-0.05977089065938707	-0.4008105208510968	0.5433119857596103	-2.834303655122536	-2.83430365512255	-0.4802067525290123	3.186983609276162e-05	-0.7742320545245808	-0.2932692496331589	-0.2150352937560927	0.01145579837695717	-0.01020107926820997	-0.2925339928734284	0.06428587885881924	0.02634911347602855	0.2124926337347917	-16.57080033142693	-7.352795144534658	-0.5885296046480257	-1.964377112330347	-603.5123083265548	-57.67956820204405	-3.98723228739803	1.204280568910133	0.8574695238595313	-0.6092623546074687	-2.058708244318927	-0.2120141582640276	-1.286433604838958	2.287910486767531	-2.247293840636603	-2.247293840635022	-0.2561201852703384	0.05000227011836697	-1.6399915870849	-0.333941496766117	-1.315455430910573e-07	5.821348295443188e-06	3.246345624596385e-06	8.926312352517843e-07	3.032232793916172e-07	4.240712166833654e-06	1.37051928424065e-07
1.52	-0.3346844388061362	-0.02795685972415844	0.7146454510135961	1.335160955004906	-0.2505490061950622	-0.03383577881824426	-0.3613096795566869	1.066566270702081	1.066566270701904	0.01171968578060681	0.1745289526578771	0.2755113593592015	0.0737422106439308	0.3676117130173453	0.1118551855087521	0.7698866296974385	-2.585911593573755	-0.06165128527325317	-0.4132308013458386	0.5660941055697041	-2.855474505502871	-2.855474505502874	-0.4827917603857169	-4.729881757646094e-06	-0.7901084721951085	-0.2960850583702522	-0.2081832077636058	0.01109513569431373	-0.009735530053382331	-0.2866283911379586	0.06632952198327034	0.0258661571555357	0.2065228302571425	-15.4832593992995	-7.555766110605795	-0.3022548961226862	-2.47085729071163	-595.9361467547329	-57.29401619049499	-5.346355501060369	1.152008203471547	0.8545374218722155	-0.7294134399165254	-1.836335971471239	-0.1517382676067485	-1.139729804324472	2.272195501931012	-1.978693962229302	-1.978693962229319	-0.2870033903541512	-0.1077067235094194	-1.528612967765837	-0.2114906508605289	-5.627674354114284e-08	6.081293450917583e-06	2.758819202414851e-06	8.686530195835321e-07	3.521265467522309e-07	4.117561215261669e-06	2.185279969047689e-07
1.53	-0.3309512391630393	-0.02679566845868769	0.7223061034056906	1.309212605963581	-0.2511744514592492	-0.03803006444341266	-0.3555362337090595	1.037915832301965	1.037915832301937	0.006878623425006275	0.1745287694770408	0.2675347347980835	0.07076941627475668	0.378940384990172	0.1203711173148561	0.762059364122634	-2.603417429518265	-0.06340376705697452	-0.4256556389239823	0.588534788986796	-2.874202434489864	-2.874202434489896	-0.4853917002265164	-2.266281194089271e-05	-0.805053194105006	-0.2983698624459561	-0.2011658484020521	0.009792420883163143	-0.009403097616540018	-0.2814434214021065	0.06851807065217547	0.02576798350705685	0.2004186671956321	-14.36530438648324	-7.980811001542402	0.07612681276805239	-2.917860739348883	-588.8509898926413	-57.47818962855597	-6.909549758305468	1.110147228481723	0.8484789355910874	-0.83696284499485	-1.656562816693384	-0.1824766398581698	-1.297753557057253	2.22096351657735	-1.758307408065181	-1.75830740806948	-0.2412261515045574	0.0521884141742144	-1.45267508401346	-0.2225489461747371	5.718001777781144e-08	6.212155199104228e-06	1.902795746702434e-06	7.927290849961808e-07	4.255164139458685e-07	3.876936040389088e-06	3.238462019419554e-07
1.54	-0.3271073826933418	-0.02554964630003321	0.729882967196291	1.283099427480669	-0.2518165162424917	-0.04234937700886084	-0.3495401892762641	1.009090421603758	1.009090421603863	0.002012614296854751	0.1745286119652729	0.2594136083615844	0.06777665913277572	0.3897430783347008	0.1288213641454994	0.7531289093985116	-2.618877481892886	-0.0649751890848385	-0.4382361894020368	0.6106138226030337	-2.890468965122091	-2.890468965122151	-0.4877811148897805	4.039357582558107e-07	-0.8190088472713716	-0.3000776129316372	-0.1941484890405149	0.008489706072032265	-0.009070665179963551	-0.2762584516662593	0.0707066193210879	0.02566980985860478	0.1943145041341033	-13.23656081077944	-8.426447821849775	0.4791511969580207	-3.45539999679857	-581.6005900753649	-57.73075192943786	-8.676923091308412	1.046812477812207	0.8414004267799469	-0.9500512697801133	-1.427179257493295	-0.115526316435247	-1.170872384306623	2.199865541760304	-1.486414291276063	-1.486414291276098	-0.2448983548471277	-0.09950678793289909	-1.330799219059654	-0.09607993285605086	7.677282530380996e-10	6.125653971597149e-06	2.358324853390371e-06	8.368703429848452e-07	3.383387984942395e-07	3.636624293426197e-06	2.921180747914828e-07
1.55	-0.3231583081824824	-0.02421957075083304	0.7373649927011887	1.25684252516726	-0.2524721528243534	-0.04679701984546276	-0.3433252885028646	0.9801153356654261	0.9801153356654346	-0.002872926241611395	0.17452859989303	0.2511584739543103	0.06477141064709624	0.3999764913062255	0.1371670880430251	0.7430987461246484	-2.632133254361764	-0.06612271535758248	-0.4512525501474392	0.6322698644623472	-2.904104046115984	-2.904104046115914	-0.4893670403816697	2.17082053060104e-06	-0.8318459784258871	-0.3008867625887223	-0.1869466744319004	0.007869638913425436	-0.008899831267783261	-0.2713113152951173	0.07294230875442491	0.02485357355691949	0.1879931417408262	-12.15070853725358	-8.500317752213926	0.7630547573014426	-3.800031896353689	-574.5044723326133	-57.25039617563278	-10.55753457743388	0.9972950618099742	0.8273838677826307	-1.056132684994759	-1.219340907156414	-0.1111358968191229	-1.361091000626574	2.134003366197692	-1.23542796661769	-1.235427966598259	-0.1205414834574688	0.04965313481491616	-1.234134730291349	-0.06206190625031366	-2.513632502873238e-07	5.788712793834274e-06	4.324990608061242e-06	1.019347583724129e-06	6.615951825568304e-08	3.396673669924473e-06	1.024887388161071e-07
1.56	-0.3191097616708964	-0.02280679286334836	0.7447413898075871	1.230464152196051	-0.2531386186917651	-0.05137364090572823	-0.3368967213392353	0.9510172243245016	0.9510172243244515	-0.007775346402383082	0.1745285324312539	0.2427801753021618	0.06176032478002284	0.4096374784772137	0.1453618318023984	0.7320032296985367	-2.643171613453503	-0.06714104619531895	-0.4640318341316314	0.6533471006488747	-2.915074045636751	-2.915074045636552	-0.4911570393574757	-1.067396939661621e-05	-0.8436416962461554	-0.3012450892104334	-0.1797448598233399	0.00724957175475629	-0.00872899735516724	-0.2663641789239726	0.07517799818774912	0.02403733725515389	0.1816717793475059	-11.06832818203528	-8.575646649320795	1.04954518246085	-4.154869556237508	-567.4496065985668	-56.77361849057397	-12.44839603118919	0.9323273177051373	0.8112043991493003	-1.163121900229857	-0.9836965820655046	-0.08968722943380317	-1.123457032064521	2.084104407203232	-0.9533979966509634	-0.9533979966510115	-0.2857130516304935	-0.1024291228728711	-1.12251655221042	-0.005915325781317231	-4.129901298041766e-07	5.618976842876854e-06	5.620257101228865e-06	1.139258151968426e-06	-1.154336298857906e-07	3.153475686476418e-06	-1.26496227709746e-08
1.57	-0.31496760703921	-0.02131287931678209	0.7520016624768314	1.203986578416589	-0.2538140712542439	-0.05607791947414913	-0.3302604085645526	0.9218228629879834	0.9218228629879959	-0.01269523903762656	0.1745285363450452	0.2342894393167789	0.05874861212968437	0.418683617794095	0.1533879293762094	0.7198896074602651	-2.651960581889079	-0.06789617707011916	-0.4768107374343951	0.6738052061058849	-2.92334279475005	-2.923342794749991	-0.4928028748604629	1.486425836468936e-05	-0.854312130911529	-0.3009872250628163	-0.1724083995974424	0.006106315565894845	-0.008791606177712012	-0.2619293549483998	0.07777662653405114	0.02354836863637418	0.1752641849349346	-9.881725177196969	-8.833279160173493	1.390147658966671	-4.591387576185252	-560.8409246279879	-56.73871869884118	-14.34448909966121	0.8742664727839797	0.7936112099274761	-1.259781519886603	-0.7691457193167303	-0.06180925050407677	-1.353297046512765	2.010126388058471	-0.6952898601467762	-0.6952898601678917	-0.1002255624735855	0.05430092348176917	-1.010063717629723	0.05652044311992548	-4.614868855416443e-07	5.658247425426247e-06	6.076274517517437e-06	1.180960379593991e-06	-1.837941129059116e-07	2.906218503095447e-06	-3.467426637268981e-08
